<?xml version="1.0" standalone="no"?>
<!DOCTYPE svg PUBLIC "-//W3C//DTD SVG 20010904//EN"
 "http://www.w3.org/TR/2001/REC-SVG-20010904/DTD/svg10.dtd">
<svg version="1.0" xmlns="http://www.w3.org/2000/svg"
 width="221.000000pt" height="228.000000pt" viewBox="0 0 221.000000 228.000000"
 preserveAspectRatio="xMidYMid meet">

<g transform="translate(0.000000,228.000000) scale(0.100000,-0.100000)"
fill="#000000" stroke="none">
<path d="M0 1140 l0 -1140 1105 0 1105 0 0 1140 0 1140 -1105 0 -1105 0 0
-1140z m354 265 c-4 -9 -19 -15 -40 -15 l-34 0 0 -115 c0 -96 -3 -115 -15
-115 -12 0 -15 19 -15 115 l0 115 -40 0 c-29 0 -40 4 -40 15 0 12 17 15 95 15
80 0 93 -2 89 -15z m76 -40 l0 -55 55 0 55 0 0 55 c0 46 3 55 18 55 15 0 17
-12 14 -130 -3 -105 -6 -130 -18 -130 -11 0 -14 14 -14 60 l0 60 -55 0 -55 0
0 -60 c0 -53 -2 -60 -20 -60 -19 0 -20 7 -20 130 0 123 1 130 20 130 18 0 20
-7 20 -55z m360 40 c0 -12 -14 -15 -65 -15 l-65 0 0 -40 0 -40 55 0 c42 0 55
-3 55 -15 0 -12 -13 -15 -55 -15 l-55 0 0 -40 0 -39 62 -3 c50 -2 63 -6 66
-20 3 -16 -6 -18 -82 -18 l-86 0 0 130 0 130 85 0 c69 0 85 -3 85 -15z m-430
-330 c0 -24 -3 -25 -55 -25 -54 0 -55 0 -55 -30 0 -29 2 -30 45 -30 38 0 45
-3 45 -20 0 -17 -7 -20 -44 -20 l-45 0 -3 -52 c-3 -46 -6 -53 -25 -56 -23 -3
-23 -3 -23 127 l0 131 80 0 c79 0 80 0 80 -25z m184 4 c34 -27 37 -90 5 -112
l-20 -15 25 -51 c14 -28 26 -53 26 -56 0 -3 -11 -5 -25 -5 -20 0 -30 10 -50
50 -33 65 -53 66 -57 3 -3 -44 -5 -48 -28 -48 l-25 0 -3 114 c-1 63 0 121 2
128 9 23 118 17 150 -8z m227 -101 c24 -68 43 -125 42 -128 -1 -3 -11 -6 -23
-8 -14 -2 -23 4 -30 22 -8 23 -15 26 -54 26 -38 0 -45 -3 -50 -25 -5 -18 -13
-25 -31 -25 -14 0 -25 2 -25 5 0 3 60 176 85 243 2 6 13 12 24 12 15 0 27 -23
62 -122z m169 45 l50 -78 0 78 c0 75 0 77 25 77 l25 0 0 -130 c0 -121 -1 -130
-19 -130 -22 0 -34 13 -83 94 l-38 61 0 -77 c0 -76 0 -78 -25 -78 l-25 0 0
130 c0 124 1 130 20 130 15 0 35 -23 70 -77z m291 48 c16 -16 29 -34 29 -40 0
-17 -48 -13 -58 5 -6 10 -19 14 -38 12 -28 -3 -29 -5 -32 -66 -3 -67 7 -92 38
-92 10 0 23 7 30 15 14 17 60 20 60 4 0 -6 -13 -24 -29 -40 -37 -37 -79 -38
-120 -3 -30 25 -31 29 -31 102 1 79 8 99 45 120 36 20 75 14 106 -17z m117
-98 c-3 -124 -4 -128 -25 -131 -23 -3 -23 -3 -23 127 l0 131 25 0 26 0 -3
-127z m177 115 c46 -21 21 -48 -37 -40 -27 3 -43 1 -48 -8 -14 -23 0 -38 42
-45 22 -4 49 -16 59 -26 39 -39 12 -110 -46 -125 -34 -8 -90 3 -105 21 -18 22
5 48 30 35 29 -15 80 -12 86 5 9 22 -14 45 -43 45 -57 0 -94 50 -73 101 19 44
81 62 135 37z m-1183 -328 c14 -11 28 -29 31 -40 4 -17 0 -20 -23 -20 -16 0
-30 7 -34 16 -4 10 -15 14 -33 12 -22 -2 -29 -10 -36 -40 -5 -22 -5 -54 0 -75
7 -31 14 -39 36 -41 18 -2 29 2 33 12 4 9 18 16 34 16 23 0 27 -3 23 -20 -15
-58 -101 -78 -150 -36 -26 23 -28 29 -28 106 0 77 2 83 28 106 35 30 85 31
119 4z m222 -1 c33 -26 37 -86 6 -114 -19 -17 -19 -18 5 -66 14 -27 25 -51 25
-54 0 -3 -13 -5 -28 -5 -24 0 -32 7 -52 50 -30 64 -48 65 -52 3 -3 -44 -5 -48
-30 -51 l-28 -3 0 130 0 131 64 0 c49 0 69 -5 90 -21z m126 -109 l0 -130 -25
0 -25 0 0 130 0 130 25 0 25 0 0 -130z m181 120 c10 -6 26 -24 34 -40 15 -30
15 -30 -14 -30 -16 0 -31 6 -35 15 -8 22 -53 19 -66 -4 -5 -11 -10 -38 -10
-61 0 -23 5 -50 10 -61 13 -23 58 -26 66 -4 4 9 19 15 35 15 29 0 29 0 14 -30
-31 -59 -98 -68 -147 -20 -29 30 -30 33 -26 106 3 69 6 79 31 100 30 25 75 31
108 14z m141 -42 l3 -52 40 52 c31 41 45 52 67 52 15 0 28 -3 28 -6 0 -4 -16
-26 -35 -50 -19 -23 -35 -46 -35 -50 0 -4 18 -38 40 -76 22 -39 40 -72 40 -74
0 -2 -13 -4 -29 -4 -25 0 -33 8 -57 55 -16 30 -32 55 -36 55 -14 0 -28 -39
-28 -74 0 -32 -3 -36 -25 -36 l-25 0 0 130 0 130 24 0 c23 0 25 -4 28 -52z
m-782 -403 c0 -104 -2 -125 -15 -125 -13 0 -15 21 -15 125 0 104 2 125 15 125
13 0 15 -21 15 -125z m140 39 l55 -86 3 86 c3 78 5 86 22 86 19 0 20 -7 20
-125 0 -115 -1 -125 -19 -125 -12 0 -37 29 -74 88 l-56 87 -1 -87 c0 -81 -2
-88 -20 -88 -19 0 -20 7 -20 125 0 159 11 163 90 39z m286 72 c28 -22 6 -41
-29 -25 -38 17 -77 4 -77 -26 0 -26 25 -45 58 -45 52 0 87 -63 62 -110 -20
-38 -134 -44 -156 -9 -12 20 11 29 42 17 44 -16 84 -4 84 27 0 26 -25 45 -58
45 -29 0 -72 38 -72 64 0 13 9 35 21 50 16 21 29 26 63 26 23 0 51 -6 62 -14z
m214 0 c0 -9 -12 -16 -32 -18 l-33 -3 -3 -107 c-2 -87 -6 -108 -17 -108 -12 0
-15 20 -15 110 l0 110 -35 0 c-24 0 -35 5 -35 15 0 12 16 15 85 15 67 0 85 -3
85 -14z m70 -111 c0 -104 -2 -125 -15 -125 -13 0 -15 21 -15 125 0 104 2 125
15 125 13 0 15 -21 15 -125z m210 110 c0 -10 -11 -15 -35 -15 l-35 0 0 -110
c0 -90 -3 -110 -15 -110 -11 0 -15 21 -17 108 l-3 107 -32 3 c-21 2 -33 9 -33
18 0 11 18 14 85 14 69 0 85 -3 85 -15z m60 -73 c0 -98 14 -132 55 -132 45 0
55 23 55 126 0 89 1 94 21 94 21 0 21 -4 17 -100 -3 -92 -6 -102 -30 -126 -36
-36 -94 -36 -125 1 -21 23 -23 36 -23 126 0 81 3 99 15 99 12 0 15 -16 15 -88z
m350 73 c0 -10 -11 -15 -35 -15 l-35 0 0 -110 c0 -103 -1 -110 -20 -110 -19 0
-20 7 -20 110 l0 110 -35 0 c-24 0 -35 5 -35 15 0 12 17 15 90 15 73 0 90 -3
90 -15z m180 0 c0 -12 -13 -15 -60 -15 l-60 0 0 -40 0 -40 50 0 c38 0 50 -4
50 -15 0 -11 -12 -15 -50 -15 l-50 0 0 -40 0 -40 60 0 c47 0 60 -3 60 -15 0
-12 -16 -15 -80 -15 l-80 0 0 125 0 125 80 0 c64 0 80 -3 80 -15z"/>
<path d="M440 1020 c0 -28 3 -30 34 -30 39 0 50 11 41 40 -5 15 -15 20 -41 20
-31 0 -34 -2 -34 -30z"/>
<path d="M696 987 c-3 -14 -9 -32 -12 -41 -5 -13 1 -16 24 -16 30 0 31 1 20
33 -15 45 -24 52 -32 24z"/>
<path d="M470 700 c0 -29 2 -31 33 -28 27 2 32 7 32 28 0 21 -5 26 -32 28 -31
3 -33 1 -33 -28z"/>
</g>
</svg>
